<?xml version="1.0" encoding="UTF-8" standalone="no"?>
<!DOCTYPE svg PUBLIC "-//W3C//DTD SVG 1.1//EN" "http://www.w3.org/Graphics/SVG/1.1/DTD/svg11.dtd">
<svg width="100%" height="100%" viewBox="0 0 296 201" version="1.1" xmlns="http://www.w3.org/2000/svg" xmlns:xlink="http://www.w3.org/1999/xlink" xml:space="preserve" xmlns:serif="http://www.serif.com/" style="fill-rule:evenodd;clip-rule:evenodd;stroke-miterlimit:10;">
    <g transform="matrix(1,0,0,1,0.199,3.6633)">
        <path d="M11.359,181.942L11.359,0M56.793,181.942L56.793,0M102.227,181.942L102.227,0M193.095,181.942L193.095,0M238.529,181.942L238.529,0M283.963,181.942L283.963,0" style="fill:none;fill-rule:nonzero;stroke:rgb(193,193,193);stroke-width:0.4px;"/>
    </g>
    <g transform="matrix(1,0,0,1,0.199,-29.8988)">
        <path d="M0,178.409L295.322,178.409M0,143.08L295.322,143.08M0,107.752L295.322,107.752M0,72.423L295.322,72.423M0,37.095L295.322,37.095" style="fill:none;fill-rule:nonzero;stroke:rgb(193,193,193);stroke-width:0.4px;"/>
    </g>
    <g transform="matrix(1,0,0,1,0.199,182.072)">
        <path d="M11.359,3.893L11.359,-0.36M56.793,3.893L56.793,-0.36M102.227,3.893L102.227,-0.36M193.095,3.893L193.095,-0.36M238.529,3.893L238.529,-0.36M283.963,3.893L283.963,-0.36" style="fill:none;fill-rule:nonzero;stroke:rgb(128,128,128);stroke-width:0.2px;"/>
    </g>
    <g transform="matrix(1,0,0,1,0.199,-29.8988)">
        <path d="M145.535,178.409L149.787,178.409M145.535,143.08L149.787,143.08M145.535,107.752L149.787,107.752M145.535,72.423L149.787,72.423M145.535,37.095L149.787,37.095" style="fill:none;fill-rule:nonzero;stroke:rgb(128,128,128);stroke-width:0.2px;"/>
    </g>
    <g transform="matrix(1,0,0,1,0.199,182.072)">
        <path d="M0,1.766L293.329,1.766" style="fill:none;fill-rule:nonzero;stroke:black;stroke-width:0.4px;"/>
    </g>
    <g transform="matrix(1,0,0,1,293.528,183.839)">
        <path d="M1.993,0L-1.196,-1.594L0,0L-1.196,1.594" style="fill-rule:nonzero;"/>
    </g>
    <g transform="matrix(0,-1,-1,0,237.835,243.291)">
        <path d="M57.686,89.975L237.636,89.975" style="fill:none;fill-rule:nonzero;stroke:black;stroke-width:0.4px;"/>
    </g>
    <g transform="matrix(0,-1,1,0,147.86,5.65583)">
        <path d="M1.993,0L-1.196,-1.594L0,0L-1.196,1.594" style="fill-rule:nonzero;"/>
    </g>
    <g transform="matrix(10.9091,0,0,10.9091,4.93,196.825)">
        <rect x="0.062" y="-0.293" width="0.596" height="0.068" style="fill-rule:nonzero;"/>
    </g>
    <g transform="matrix(10.9091,0,0,10.9091,12.7845,196.825)">
        <path d="M0.086,-0.498C0.12,-0.551 0.157,-0.579 0.217,-0.579C0.279,-0.579 0.319,-0.545 0.319,-0.486C0.319,-0.405 0.248,-0.35 0.18,-0.35L0.161,-0.35L0.161,-0.312L0.181,-0.312C0.277,-0.312 0.362,-0.253 0.362,-0.164C0.362,-0.066 0.301,-0.037 0.238,-0.037C0.214,-0.037 0.2,-0.041 0.157,-0.063C0.122,-0.081 0.114,-0.086 0.098,-0.086C0.072,-0.086 0.059,-0.063 0.059,-0.042C0.059,-0.016 0.081,0.013 0.171,0.013C0.317,0.013 0.444,-0.057 0.444,-0.194C0.444,-0.283 0.377,-0.336 0.297,-0.361L0.297,-0.364C0.36,-0.404 0.405,-0.441 0.405,-0.51C0.405,-0.586 0.346,-0.644 0.244,-0.644C0.162,-0.644 0.1,-0.598 0.063,-0.511L0.086,-0.498Z" style="fill-rule:nonzero;"/>
    </g>
    <g transform="matrix(10.9091,0,0,10.9091,50.364,196.825)">
        <rect x="0.062" y="-0.293" width="0.596" height="0.068" style="fill-rule:nonzero;"/>
    </g>
    <g transform="matrix(10.9091,0,0,10.9091,58.2185,196.825)">
        <path d="M0.464,-0.16L0.435,-0.16C0.412,-0.1 0.399,-0.079 0.346,-0.079L0.207,-0.079L0.137,-0.076L0.137,-0.081L0.269,-0.206C0.375,-0.313 0.432,-0.382 0.432,-0.471C0.432,-0.576 0.353,-0.644 0.24,-0.644C0.143,-0.644 0.075,-0.588 0.044,-0.491L0.068,-0.481C0.105,-0.556 0.149,-0.579 0.214,-0.579C0.291,-0.579 0.339,-0.531 0.339,-0.456C0.339,-0.351 0.289,-0.288 0.19,-0.186L0.038,-0.034L0.038,-0L0.432,-0L0.464,-0.16Z" style="fill-rule:nonzero;"/>
    </g>
    <g transform="matrix(10.9091,0,0,10.9091,95.797,196.771)">
        <rect x="0.062" y="-0.293" width="0.596" height="0.068" style="fill-rule:nonzero;"/>
    </g>
    <g transform="matrix(10.9091,0,0,10.9091,103.652,196.771)">
        <path d="M0.426,-0L0.426,-0.028C0.334,-0.028 0.297,-0.046 0.297,-0.095L0.297,-0.639L0.268,-0.639L0.074,-0.584L0.074,-0.551C0.105,-0.561 0.156,-0.567 0.176,-0.567C0.201,-0.567 0.209,-0.553 0.209,-0.518L0.209,-0.095C0.209,-0.045 0.174,-0.028 0.08,-0.028L0.08,-0L0.426,-0Z" style="fill-rule:nonzero;"/>
    </g>
    <g transform="matrix(10.9091,0,0,10.9091,190.592,196.771)">
        <path d="M0.426,-0L0.426,-0.028C0.334,-0.028 0.297,-0.046 0.297,-0.095L0.297,-0.639L0.268,-0.639L0.074,-0.584L0.074,-0.551C0.105,-0.561 0.156,-0.567 0.176,-0.567C0.201,-0.567 0.209,-0.553 0.209,-0.518L0.209,-0.095C0.209,-0.045 0.174,-0.028 0.08,-0.028L0.08,-0L0.426,-0Z" style="fill-rule:nonzero;"/>
    </g>
    <g transform="matrix(10.9091,0,0,10.9091,236.025,196.825)">
        <path d="M0.464,-0.16L0.435,-0.16C0.412,-0.1 0.399,-0.079 0.346,-0.079L0.207,-0.079L0.137,-0.076L0.137,-0.081L0.269,-0.206C0.375,-0.313 0.432,-0.382 0.432,-0.471C0.432,-0.576 0.353,-0.644 0.24,-0.644C0.143,-0.644 0.075,-0.588 0.044,-0.491L0.068,-0.481C0.105,-0.556 0.149,-0.579 0.214,-0.579C0.291,-0.579 0.339,-0.531 0.339,-0.456C0.339,-0.351 0.289,-0.288 0.19,-0.186L0.038,-0.034L0.038,-0L0.432,-0L0.464,-0.16Z" style="fill-rule:nonzero;"/>
    </g>
    <g transform="matrix(10.9091,0,0,10.9091,281.459,196.825)">
        <path d="M0.086,-0.498C0.12,-0.551 0.157,-0.579 0.217,-0.579C0.279,-0.579 0.319,-0.545 0.319,-0.486C0.319,-0.405 0.248,-0.35 0.18,-0.35L0.161,-0.35L0.161,-0.312L0.181,-0.312C0.277,-0.312 0.362,-0.253 0.362,-0.164C0.362,-0.066 0.301,-0.037 0.238,-0.037C0.214,-0.037 0.2,-0.041 0.157,-0.063C0.122,-0.081 0.114,-0.086 0.098,-0.086C0.072,-0.086 0.059,-0.063 0.059,-0.042C0.059,-0.016 0.081,0.013 0.171,0.013C0.317,0.013 0.444,-0.057 0.444,-0.194C0.444,-0.283 0.377,-0.336 0.297,-0.361L0.297,-0.364C0.36,-0.404 0.405,-0.441 0.405,-0.51C0.405,-0.586 0.346,-0.644 0.244,-0.644C0.162,-0.644 0.1,-0.598 0.063,-0.511L0.086,-0.498Z" style="fill-rule:nonzero;"/>
    </g>
    <g transform="matrix(10.9091,0,0,10.9091,136.497,152.023)">
        <path d="M0.464,-0.16L0.435,-0.16C0.412,-0.1 0.399,-0.079 0.346,-0.079L0.207,-0.079L0.137,-0.076L0.137,-0.081L0.269,-0.206C0.375,-0.313 0.432,-0.382 0.432,-0.471C0.432,-0.576 0.353,-0.644 0.24,-0.644C0.143,-0.644 0.075,-0.588 0.044,-0.491L0.068,-0.481C0.105,-0.556 0.149,-0.579 0.214,-0.579C0.291,-0.579 0.339,-0.531 0.339,-0.456C0.339,-0.351 0.289,-0.288 0.19,-0.186L0.038,-0.034L0.038,-0L0.432,-0L0.464,-0.16Z" style="fill-rule:nonzero;"/>
    </g>
    <g transform="matrix(10.9091,0,0,10.9091,136.497,116.7)">
        <path d="M0.481,-0.158L0.481,-0.227L0.379,-0.227L0.379,-0.645L0.318,-0.645L0.013,-0.221L0.013,-0.158L0.29,-0.158L0.29,-0L0.379,-0L0.379,-0.158L0.481,-0.158ZM0.29,-0.227L0.068,-0.227L0.068,-0.231L0.286,-0.536L0.29,-0.536L0.29,-0.227Z" style="fill-rule:nonzero;"/>
    </g>
    <g transform="matrix(10.9091,0,0,10.9091,136.497,81.312)">
        <path d="M0.415,-0.646C0.2,-0.637 0.045,-0.498 0.045,-0.257C0.045,-0.11 0.11,0.012 0.259,0.012C0.385,0.012 0.457,-0.067 0.457,-0.203C0.457,-0.334 0.386,-0.413 0.277,-0.413C0.225,-0.413 0.188,-0.391 0.147,-0.351L0.14,-0.352C0.165,-0.498 0.277,-0.596 0.417,-0.617L0.415,-0.646ZM0.37,-0.195C0.37,-0.068 0.33,-0.023 0.263,-0.023C0.176,-0.023 0.135,-0.112 0.135,-0.236C0.135,-0.323 0.189,-0.355 0.247,-0.355C0.33,-0.355 0.37,-0.285 0.37,-0.195Z" style="fill-rule:nonzero;"/>
    </g>
    <g transform="matrix(10.9091,0,0,10.9091,136.497,45.99)">
        <path d="M0.448,-0.15C0.448,-0.23 0.412,-0.278 0.295,-0.349L0.295,-0.352C0.388,-0.403 0.424,-0.436 0.424,-0.509C0.424,-0.588 0.348,-0.647 0.249,-0.647C0.139,-0.647 0.059,-0.59 0.059,-0.499C0.059,-0.431 0.081,-0.39 0.183,-0.319L0.183,-0.316C0.09,-0.254 0.046,-0.222 0.046,-0.142C0.046,-0.04 0.13,0.012 0.246,0.012C0.365,0.012 0.448,-0.045 0.448,-0.15ZM0.213,-0.3C0.334,-0.222 0.364,-0.185 0.364,-0.121C0.364,-0.053 0.312,-0.019 0.25,-0.019C0.174,-0.019 0.124,-0.06 0.124,-0.15C0.124,-0.219 0.156,-0.254 0.213,-0.3ZM0.35,-0.511C0.35,-0.447 0.33,-0.408 0.264,-0.368C0.175,-0.422 0.137,-0.458 0.137,-0.517C0.137,-0.578 0.179,-0.614 0.247,-0.614C0.311,-0.614 0.35,-0.577 0.35,-0.511Z" style="fill-rule:nonzero;"/>
    </g>
    <g transform="matrix(10.9091,0,0,10.9091,131.097,10.64)">
        <path d="M0.426,-0L0.426,-0.028C0.334,-0.028 0.297,-0.046 0.297,-0.095L0.297,-0.639L0.268,-0.639L0.074,-0.584L0.074,-0.551C0.105,-0.561 0.156,-0.567 0.176,-0.567C0.201,-0.567 0.209,-0.553 0.209,-0.518L0.209,-0.095C0.209,-0.045 0.174,-0.028 0.08,-0.028L0.08,-0L0.426,-0Z" style="fill-rule:nonzero;"/>
    </g>
    <g transform="matrix(10.9091,0,0,10.9091,136.497,10.64)">
        <path d="M0.468,-0.317C0.468,-0.523 0.378,-0.642 0.249,-0.642C0.104,-0.642 0.027,-0.51 0.027,-0.32C0.027,-0.143 0.086,0.011 0.247,0.011C0.404,0.011 0.468,-0.146 0.468,-0.317ZM0.371,-0.311C0.371,-0.119 0.326,-0.025 0.247,-0.025C0.167,-0.025 0.123,-0.121 0.123,-0.315C0.123,-0.513 0.167,-0.608 0.246,-0.608C0.328,-0.608 0.371,-0.514 0.371,-0.311Z" style="fill-rule:nonzero;"/>
    </g>
    <g>
        <clipPath id="_clip1">
            <rect x="0.199" y="3.663" width="295.322" height="181.942" clip-rule="nonzero"/>
        </clipPath>
        <g clip-path="url(#_clip1)">
            <g transform="matrix(1,0,0,1,0.199,23.0918)">
                <path d="M11.359,1.768L12.27,3.888L13.182,5.993L14.094,8.085L15.005,10.162L15.917,12.224L16.829,14.273L17.741,16.307L18.652,18.327L19.564,20.333L20.476,22.325L21.388,24.302L22.299,26.266L23.211,28.215L24.123,30.149L25.034,32.07L25.946,33.976L26.858,35.868L27.77,37.746L28.681,39.61L29.593,41.459L30.505,43.294L31.416,45.115L32.328,46.922L33.24,48.714L34.152,50.493L35.063,52.257L35.975,54.006L36.887,55.742L37.799,57.463L38.71,59.171L39.622,60.863L40.534,62.542L41.445,64.207L42.357,65.857L43.269,67.493L44.181,69.115L45.092,70.722L46.004,72.315L46.916,73.895L47.827,75.459L48.739,77.01L49.651,78.547L50.563,80.069L51.474,81.577L52.386,83.07L53.298,84.55L54.21,86.015L55.121,87.466L56.033,88.903L56.945,90.326L57.856,91.734L58.768,93.128L59.68,94.508L60.592,95.874L61.503,97.225L62.415,98.563L63.327,99.886L64.239,101.194L65.15,102.489L66.062,103.769L66.974,105.036L67.885,106.287L68.797,107.525L69.709,108.749L70.621,109.958L71.532,111.153L72.444,112.334L73.356,113.5L74.267,114.652L75.179,115.79L76.091,116.914L77.003,118.024L77.914,119.119L78.826,120.201L79.738,121.268L80.65,122.32L81.561,123.359L82.473,124.383L83.385,125.393L84.296,126.389L85.208,127.371L86.12,128.338L87.032,129.291L87.943,130.23L88.855,131.155L89.767,132.065L90.678,132.961L91.59,133.843L92.502,134.711L93.414,135.565L94.325,136.404L95.237,137.229L96.149,138.04L97.061,138.837L97.972,139.619L98.884,140.387L99.796,141.141L100.707,141.881L101.619,142.607L102.531,143.318L103.443,144.015L104.354,144.698L105.266,145.367L106.178,146.021L107.09,146.661L108.001,147.287L108.913,147.899L109.825,148.496L110.736,149.08L111.648,149.649L112.56,150.203L113.472,150.744L114.383,151.27L115.295,151.783L116.207,152.28L117.118,152.764L118.03,153.234L118.942,153.689L119.854,154.13L120.765,154.557L121.677,154.969L122.589,155.368L123.501,155.752L124.412,156.122L125.324,156.477L126.236,156.819L127.147,157.146L128.059,157.459L128.971,157.758L129.883,158.042L130.794,158.312L131.706,158.568L132.618,158.81L133.529,159.038L134.441,159.251L135.353,159.45L136.265,159.635L137.176,159.806L138.088,159.963L139,160.105L139.912,160.233L140.823,160.347L141.735,160.446L142.647,160.532L143.558,160.603L144.47,160.66L145.382,160.702L146.294,160.731L147.205,160.745L148.117,160.745L149.029,160.731L149.94,160.702L150.852,160.66L151.764,160.603L152.676,160.532L153.587,160.446L154.499,160.347L155.411,160.233L156.323,160.105L157.234,159.963L158.146,159.806L159.058,159.635L159.969,159.45L160.881,159.251L161.793,159.038L162.705,158.81L163.616,158.568L164.528,158.312L165.44,158.042L166.352,157.758L167.263,157.459L168.175,157.146L169.087,156.819L169.998,156.477L170.91,156.122L171.822,155.752L172.734,155.368L173.645,154.969L174.557,154.557L175.469,154.13L176.38,153.689L177.292,153.234L178.204,152.764L179.116,152.28L180.027,151.783L180.939,151.27L181.851,150.744L182.763,150.203L183.674,149.649L184.586,149.08L185.498,148.496L186.409,147.899L187.321,147.287L188.233,146.661L189.145,146.021L190.056,145.367L190.968,144.698L191.88,144.015L192.791,143.318L193.703,142.607L194.615,141.881L195.527,141.141L196.438,140.387L197.35,139.619L198.262,138.837L199.174,138.04L200.085,137.229L200.997,136.404L201.909,135.565L202.82,134.711L203.732,133.843L204.644,132.961L205.556,132.065L206.467,131.155L207.379,130.23L208.291,129.291L209.202,128.338L210.114,127.371L211.026,126.389L211.938,125.393L212.849,124.383L213.761,123.359L214.673,122.32L215.585,121.268L216.496,120.201L217.408,119.119L218.32,118.024L219.231,116.914L220.143,115.79L221.055,114.652L221.967,113.5L222.878,112.334L223.79,111.153L224.702,109.958L225.614,108.749L226.525,107.525L227.437,106.287L228.349,105.036L229.26,103.769L230.172,102.489L231.084,101.194L231.996,99.886L232.907,98.563L233.819,97.225L234.731,95.874L235.642,94.508L236.554,93.128L237.466,91.734L238.378,90.326L239.289,88.903L240.201,87.466L241.113,86.015L242.025,84.55L242.936,83.07L243.848,81.577L244.76,80.069L245.671,78.547L246.583,77.01L247.495,75.459L248.407,73.895L249.318,72.315L250.23,70.722L251.142,69.115L252.053,67.493L252.965,65.857L253.877,64.207L254.789,62.542L255.7,60.863L256.612,59.171L257.524,57.463L258.436,55.742L259.347,54.006L260.259,52.257L261.171,50.493L262.082,48.714L262.994,46.922L263.906,45.115L264.818,43.294L265.729,41.459L266.641,39.61L267.553,37.746L268.465,35.868L269.376,33.976L270.288,32.07L271.2,30.149L272.111,28.215L273.023,26.266L273.935,24.302L274.847,22.325L275.758,20.333L276.67,18.327L277.582,16.307L278.493,14.273L279.405,12.224L280.317,10.162L281.229,8.085L282.14,5.993L283.052,3.888L283.964,1.768" style="fill:none;fill-rule:nonzero;stroke:rgb(0,90,148);stroke-width:0.8px;"/>
            </g>
            <g>
                <g transform="matrix(10.9091,0,0,10.9091,234.132,129.259)">
                    <path d="M0.19,-0.467L0.186,-0.426L0.27,-0.426L0.205,-0.037C0.194,0.029 0.168,0.193 0.115,0.193C0.077,0.193 0.11,0.104 0.05,0.104C0.024,0.104 0.01,0.125 0.01,0.153C0.01,0.188 0.035,0.225 0.099,0.225C0.236,0.225 0.282,0.001 0.296,-0.085L0.353,-0.426L0.447,-0.426L0.453,-0.467L0.358,-0.467L0.37,-0.538C0.385,-0.623 0.41,-0.682 0.461,-0.682C0.485,-0.682 0.487,-0.658 0.491,-0.633C0.494,-0.612 0.504,-0.594 0.531,-0.594C0.552,-0.594 0.571,-0.609 0.571,-0.638C0.571,-0.681 0.537,-0.711 0.476,-0.711C0.39,-0.711 0.349,-0.665 0.323,-0.618C0.3,-0.577 0.288,-0.523 0.276,-0.467L0.19,-0.467Z" style="fill-rule:nonzero;"/>
                </g>
                <g transform="matrix(10.9091,0,0,10.9091,240.645,129.259)">
                    <path d="M0.045,-0.27C0.045,-0.047 0.15,0.112 0.311,0.196L0.327,0.17C0.181,0.071 0.127,-0.066 0.127,-0.27C0.127,-0.474 0.181,-0.611 0.327,-0.71L0.311,-0.736C0.15,-0.652 0.045,-0.493 0.045,-0.27Z" style="fill-rule:nonzero;"/>
                </g>
                <g transform="matrix(10.9091,0,0,10.9091,244.539,129.259)">
                    <path d="M0.315,-0.298L0.312,-0.298L0.3,-0.349C0.286,-0.403 0.267,-0.447 0.243,-0.475L0.228,-0.475L0.089,-0.459L0.089,-0.429C0.089,-0.429 0.104,-0.432 0.12,-0.432C0.186,-0.433 0.203,-0.406 0.23,-0.322L0.258,-0.231L0.186,-0.126C0.147,-0.07 0.129,-0.069 0.125,-0.069C0.108,-0.069 0.084,-0.082 0.062,-0.082C0.038,-0.082 0.023,-0.06 0.023,-0.04C0.023,-0.015 0.038,0.009 0.081,0.009C0.141,0.009 0.174,-0.038 0.206,-0.09L0.27,-0.194L0.274,-0.194L0.299,-0.093C0.313,-0.028 0.335,0.01 0.381,0.01C0.449,0.01 0.491,-0.058 0.52,-0.102L0.499,-0.118C0.472,-0.082 0.453,-0.062 0.427,-0.062C0.396,-0.062 0.376,-0.099 0.348,-0.191L0.327,-0.259L0.388,-0.356C0.405,-0.384 0.419,-0.398 0.442,-0.398C0.455,-0.398 0.478,-0.388 0.494,-0.388C0.521,-0.388 0.54,-0.411 0.54,-0.435C0.54,-0.463 0.528,-0.479 0.49,-0.479C0.431,-0.479 0.391,-0.43 0.364,-0.382L0.315,-0.298Z" style="fill-rule:nonzero;"/>
                </g>
                <g transform="matrix(10.9091,0,0,10.9091,250.747,129.259)">
                    <path d="M0.312,-0.27C0.312,-0.493 0.207,-0.652 0.046,-0.736L0.03,-0.71C0.176,-0.611 0.23,-0.474 0.23,-0.27C0.23,-0.066 0.176,0.071 0.03,0.17L0.046,0.196C0.207,0.112 0.312,-0.047 0.312,-0.27Z" style="fill-rule:nonzero;"/>
                </g>
                <g transform="matrix(10.9091,0,0,10.9091,257.668,129.259)">
                    <path d="M0.658,-0.327L0.658,-0.395L0.062,-0.395L0.062,-0.327L0.658,-0.327ZM0.658,-0.123L0.658,-0.19L0.062,-0.19L0.062,-0.123L0.658,-0.123Z" style="fill-rule:nonzero;"/>
                </g>
                <g transform="matrix(10.9091,0,0,10.9091,268.55,129.259)">
                    <path d="M0.315,-0.298L0.312,-0.298L0.3,-0.349C0.286,-0.403 0.267,-0.447 0.243,-0.475L0.228,-0.475L0.089,-0.459L0.089,-0.429C0.089,-0.429 0.104,-0.432 0.12,-0.432C0.186,-0.433 0.203,-0.406 0.23,-0.322L0.258,-0.231L0.186,-0.126C0.147,-0.07 0.129,-0.069 0.125,-0.069C0.108,-0.069 0.084,-0.082 0.062,-0.082C0.038,-0.082 0.023,-0.06 0.023,-0.04C0.023,-0.015 0.038,0.009 0.081,0.009C0.141,0.009 0.174,-0.038 0.206,-0.09L0.27,-0.194L0.274,-0.194L0.299,-0.093C0.313,-0.028 0.335,0.01 0.381,0.01C0.449,0.01 0.491,-0.058 0.52,-0.102L0.499,-0.118C0.472,-0.082 0.453,-0.062 0.427,-0.062C0.396,-0.062 0.376,-0.099 0.348,-0.191L0.327,-0.259L0.388,-0.356C0.405,-0.384 0.419,-0.398 0.442,-0.398C0.455,-0.398 0.478,-0.388 0.494,-0.388C0.521,-0.388 0.54,-0.411 0.54,-0.435C0.54,-0.463 0.528,-0.479 0.49,-0.479C0.431,-0.479 0.391,-0.43 0.364,-0.382L0.315,-0.298Z" style="fill-rule:nonzero;"/>
                </g>
                <g transform="matrix(7.63636,0,0,7.63636,274.763,125.332)">
                    <path d="M0.464,-0.16L0.435,-0.16C0.412,-0.1 0.399,-0.079 0.346,-0.079L0.207,-0.079L0.137,-0.076L0.137,-0.081L0.269,-0.206C0.375,-0.313 0.432,-0.382 0.432,-0.471C0.432,-0.576 0.353,-0.644 0.24,-0.644C0.143,-0.644 0.075,-0.588 0.044,-0.491L0.068,-0.481C0.105,-0.556 0.149,-0.579 0.214,-0.579C0.291,-0.579 0.339,-0.531 0.339,-0.456C0.339,-0.351 0.289,-0.288 0.19,-0.186L0.038,-0.034L0.038,-0L0.432,-0L0.464,-0.16Z" style="fill-rule:nonzero;"/>
                </g>
            </g>
            <g transform="matrix(10.9091,0,0,10.9091,285.584,179.894)">
                <path d="M0.315,-0.298L0.312,-0.298L0.3,-0.349C0.286,-0.403 0.267,-0.447 0.243,-0.475L0.228,-0.475L0.089,-0.459L0.089,-0.429C0.089,-0.429 0.104,-0.432 0.12,-0.432C0.186,-0.433 0.203,-0.406 0.23,-0.322L0.258,-0.231L0.186,-0.126C0.147,-0.07 0.129,-0.069 0.125,-0.069C0.108,-0.069 0.084,-0.082 0.062,-0.082C0.038,-0.082 0.023,-0.06 0.023,-0.04C0.023,-0.015 0.038,0.009 0.081,0.009C0.141,0.009 0.174,-0.038 0.206,-0.09L0.27,-0.194L0.274,-0.194L0.299,-0.093C0.313,-0.028 0.335,0.01 0.381,0.01C0.449,0.01 0.491,-0.058 0.52,-0.102L0.499,-0.118C0.472,-0.082 0.453,-0.062 0.427,-0.062C0.396,-0.062 0.376,-0.099 0.348,-0.191L0.327,-0.259L0.388,-0.356C0.405,-0.384 0.419,-0.398 0.442,-0.398C0.455,-0.398 0.478,-0.388 0.494,-0.388C0.521,-0.388 0.54,-0.411 0.54,-0.435C0.54,-0.463 0.528,-0.479 0.49,-0.479C0.431,-0.479 0.391,-0.43 0.364,-0.382L0.315,-0.298Z" style="fill-rule:nonzero;"/>
            </g>
            <g transform="matrix(10.9091,0,0,10.9091,151.694,15.53)">
                <path d="M0.19,-0.467L0.186,-0.426L0.27,-0.426L0.205,-0.037C0.194,0.029 0.168,0.193 0.115,0.193C0.077,0.193 0.11,0.104 0.05,0.104C0.024,0.104 0.01,0.125 0.01,0.153C0.01,0.188 0.035,0.225 0.099,0.225C0.236,0.225 0.282,0.001 0.296,-0.085L0.353,-0.426L0.447,-0.426L0.453,-0.467L0.358,-0.467L0.37,-0.538C0.385,-0.623 0.41,-0.682 0.461,-0.682C0.485,-0.682 0.487,-0.658 0.491,-0.633C0.494,-0.612 0.504,-0.594 0.531,-0.594C0.552,-0.594 0.571,-0.609 0.571,-0.638C0.571,-0.681 0.537,-0.711 0.476,-0.711C0.39,-0.711 0.349,-0.665 0.323,-0.618C0.3,-0.577 0.288,-0.523 0.276,-0.467L0.19,-0.467Z" style="fill-rule:nonzero;"/>
            </g>
            <g transform="matrix(10.9091,0,0,10.9091,158.207,15.53)">
                <path d="M0.045,-0.27C0.045,-0.047 0.15,0.112 0.311,0.196L0.327,0.17C0.181,0.071 0.127,-0.066 0.127,-0.27C0.127,-0.474 0.181,-0.611 0.327,-0.71L0.311,-0.736C0.15,-0.652 0.045,-0.493 0.045,-0.27Z" style="fill-rule:nonzero;"/>
            </g>
            <g transform="matrix(10.9091,0,0,10.9091,162.101,15.53)">
                <path d="M0.315,-0.298L0.312,-0.298L0.3,-0.349C0.286,-0.403 0.267,-0.447 0.243,-0.475L0.228,-0.475L0.089,-0.459L0.089,-0.429C0.089,-0.429 0.104,-0.432 0.12,-0.432C0.186,-0.433 0.203,-0.406 0.23,-0.322L0.258,-0.231L0.186,-0.126C0.147,-0.07 0.129,-0.069 0.125,-0.069C0.108,-0.069 0.084,-0.082 0.062,-0.082C0.038,-0.082 0.023,-0.06 0.023,-0.04C0.023,-0.015 0.038,0.009 0.081,0.009C0.141,0.009 0.174,-0.038 0.206,-0.09L0.27,-0.194L0.274,-0.194L0.299,-0.093C0.313,-0.028 0.335,0.01 0.381,0.01C0.449,0.01 0.491,-0.058 0.52,-0.102L0.499,-0.118C0.472,-0.082 0.453,-0.062 0.427,-0.062C0.396,-0.062 0.376,-0.099 0.348,-0.191L0.327,-0.259L0.388,-0.356C0.405,-0.384 0.419,-0.398 0.442,-0.398C0.455,-0.398 0.478,-0.388 0.494,-0.388C0.521,-0.388 0.54,-0.411 0.54,-0.435C0.54,-0.463 0.528,-0.479 0.49,-0.479C0.431,-0.479 0.391,-0.43 0.364,-0.382L0.315,-0.298Z" style="fill-rule:nonzero;"/>
            </g>
            <g transform="matrix(10.9091,0,0,10.9091,168.309,15.53)">
                <path d="M0.312,-0.27C0.312,-0.493 0.207,-0.652 0.046,-0.736L0.03,-0.71C0.176,-0.611 0.23,-0.474 0.23,-0.27C0.23,-0.066 0.176,0.071 0.03,0.17L0.046,0.196C0.207,0.112 0.312,-0.047 0.312,-0.27Z" style="fill-rule:nonzero;"/>
            </g>
        </g>
    </g>
</svg>
