<svg viewBox="0 0 800 600" xmlns="http://www.w3.org/2000/svg">
  <!-- Hintergrund -->
  <rect x="0" y="0" width="800" height="600" fill="#f0f0f0"/>
  
  <!-- Photovoltaik-Anlage auf Dach -->
  <polygon points="50,400 750,400 700,150 100,150" fill="#444" stroke="#333" stroke-width="2"/>
  
  <!-- Dach -->
  <polygon points="25,425 775,425 700,150 100,150" fill="none" stroke="#333" stroke-width="2"/>
  
  <!-- Solarpanels in Reihen -->
  <!-- Erste Reihe -->
  <g id="panel-row-1">
    <rect x="120" y="180" width="120" height="80" fill="#1c4587" stroke="#000" stroke-width="1"/>
    <rect x="250" y="180" width="120" height="80" fill="#1c4587" stroke="#000" stroke-width="1"/>
    <rect x="380" y="180" width="120" height="80" fill="#1c4587" stroke="#000" stroke-width="1"/>
    <rect x="510" y="180" width="120" height="80" fill="#1c4587" stroke="#000" stroke-width="1"/>
  </g>
  
  <!-- Zweite Reihe -->
  <g id="panel-row-2">
    <rect x="120" y="270" width="120" height="80" fill="#1c4587" stroke="#000" stroke-width="1"/>
    <rect x="250" y="270" width="120" height="80" fill="#1c4587" stroke="#000" stroke-width="1"/>
    <rect x="380" y="270" width="120" height="80" fill="#1c4587" stroke="#000" stroke-width="1"/>
    <rect x="510" y="270" width="120" height="80" fill="#1c4587" stroke="#000" stroke-width="1"/>
  </g>
  
  <!-- Thermografie-Overlay mit semi-transparenten Farben -->
  <!-- Normale Temperatur (grün-blau) -->
  <rect x="120" y="180" width="120" height="80" fill="#00ffff" opacity="0.4" stroke="none"/>
  <rect x="250" y="180" width="120" height="80" fill="#00ffff" opacity="0.4" stroke="none"/>
  <rect x="380" y="180" width="120" height="80" fill="#00ffff" opacity="0.4" stroke="none"/>
  
  <!-- Defektes Panel mit Hotspot (rot) -->
  <rect x="510" y="180" width="120" height="80" fill="url(#hotspot-gradient)" opacity="0.7" stroke="none"/>
  
  <!-- Normale Temperaturpanels in zweiter Reihe -->
  <rect x="120" y="270" width="120" height="80" fill="#00ffff" opacity="0.4" stroke="none"/>
  <rect x="250" y="270" width="120" height="80" fill="#00ffff" opacity="0.4" stroke="none"/>
  
  <!-- Panel mit leicht erhöhter Temperatur (gelb) - leichter Defekt -->
  <rect x="380" y="270" width="120" height="80" fill="#ffff00" opacity="0.5" stroke="none"/>
  
  <!-- Normales Panel in zweiter Reihe -->
  <rect x="510" y="270" width="120" height="80" fill="#00ffff" opacity="0.4" stroke="none"/>
  
  <!-- Detailierte Zellen in defekten Panels -->
  <!-- Heißer Hotspot in Panel -->
  <g id="hotspot-detail">
    <!-- Zellraster im defekten Panel -->
    <g stroke="#333" stroke-width="0.5" opacity="0.7">
      <line x1="510" y1="195" x2="630" y2="195"/>
      <line x1="510" y1="210" x2="630" y2="210"/>
      <line x1="510" y1="225" x2="630" y2="225"/>
      <line x1="510" y1="240" x2="630" y2="240"/>
      <line x1="510" y1="255" x2="630" y2="255"/>
      
      <line x1="530" y1="180" x2="530" y2="260"/>
      <line x1="550" y1="180" x2="550" y2="260"/>
      <line x1="570" y1="180" x2="570" y2="260"/>
      <line x1="590" y1="180" x2="590" y2="260"/>
      <line x1="610" y1="180" x2="610" y2="260"/>
    </g>
    
    <!-- Hotspot in Zelle -->
    <circle cx="570" cy="220" r="15" fill="#ff0000" opacity="0.9"/>
    <circle cx="570" cy="220" r="25" fill="#ff5500" opacity="0.7"/>
    <circle cx="570" cy="220" r="35" fill="#ff8800" opacity="0.5"/>
  </g>
  
  <!-- Defekt mittlerer Stärke im anderen Panel -->
  <g id="medium-defect">
    <!-- Zellraster im anderen defekten Panel -->
    <g stroke="#333" stroke-width="0.5" opacity="0.7">
      <line x1="380" y1="285" x2="500" y2="285"/>
      <line x1="380" y1="300" x2="500" y2="300"/>
      <line x1="380" y1="315" x2="500" y2="315"/>
      <line x1="380" y1="330" x2="500" y2="330"/>
      <line x1="380" y1="345" x2="500" y2="345"/>
      
      <line x1="400" y1="270" x2="400" y2="350"/>
      <line x1="420" y1="270" x2="420" y2="350"/>
      <line x1="440" y1="270" x2="440" y2="350"/>
      <line x1="460" y1="270" x2="460" y2="350"/>
      <line x1="480" y1="270" x2="480" y2="350"/>
    </g>
    
    <!-- Mehrere mäßig heiße Bereiche (gelb) -->
    <rect x="420" y="300" width="20" height="15" fill="#ffcc00" opacity="0.8" rx="2" ry="2"/>
    <rect x="440" y="300" width="20" height="15" fill="#ffcc00" opacity="0.8" rx="2" ry="2"/>
    <rect x="460" y="315" width="20" height="15" fill="#ffaa00" opacity="0.8" rx="2" ry="2"/>
  </g>
  
  <!-- Thermografische Kamera -->
  <g id="thermal-camera">
    <rect x="600" y="480" width="50" height="30" fill="#222" stroke="#000" stroke-width="1" rx="3" ry="3"/>
    <rect x="610" y="475" width="30" height="5" fill="#444" stroke="#000" stroke-width="1"/>
    <circle cx="625" cy="490" r="10" fill="#333" stroke="#000" stroke-width="1"/>
    <circle cx="625" cy="490" r="7" fill="#222" stroke="#000" stroke-width="1"/>
    <circle cx="625" cy="490" r="4" fill="#111" stroke="#000" stroke-width="1"/>
    <circle cx="635" cy="485" r="2" fill="#f00"/>
  </g>
  
  <!-- Infoscreen der Kamera mit Details zu den Defekten -->
  <g id="camera-screen">
    <rect x="660" y="440" width="120" height="90" fill="#222" stroke="#444" stroke-width="2" rx="5" ry="5"/>
    <rect x="670" y="450" width="100" height="70" fill="#444" stroke="none"/>
    
    <!-- Thermografisches Mini-Bild im Display -->
    <g transform="scale(0.2) translate(3350, 2250)">
      <rect x="510" y="180" width="120" height="80" fill="url(#hotspot-gradient-small)" opacity="0.7" stroke="none"/>
      <circle cx="570" cy="220" r="15" fill="#ff0000" opacity="0.9"/>
      <circle cx="570" cy="220" r="25" fill="#ff5500" opacity="0.7"/>
    </g>
    
    <!-- Text und Info im Display -->
    <text x="720" y="465" font-family="Arial" font-size="7" fill="white" text-anchor="middle">THERMOSCAN-X200</text>
    <text x="720" y="515" font-family="Arial" font-size="7" fill="#ff3333" text-anchor="middle">HOTSPOT DETECTED</text>
    <text x="685" y="525" font-family="Arial" font-size="6" fill="white">TEMP:</text>
    <text x="710" y="525" font-family="Arial" font-size="6" fill="#ff3333">87.5°C</text>
    <text x="685" y="535" font-family="Arial" font-size="6" fill="white">NORMAL:</text>
    <text x="715" y="535" font-family="Arial" font-size="6" fill="#33ff33">42.1°C</text>
  </g>
  
  <!-- Person mit Kamera -->
  <g id="inspector">
    <!-- Körper -->
    <ellipse cx="580" cy="520" rx="15" ry="30" fill="#666"/>
    <rect x="575" y="490" width="10" height="20" fill="#666"/>
    
    <!-- Kopf -->
    <circle cx="580" cy="485" r="10" fill="#ffd6b2"/>
    
    <!-- Arm mit Kamera -->
    <line x1="580" y1="500" x2="610" y2="480" stroke="#666" stroke-width="7" stroke-linecap="round"/>
  </g>
  
  <!-- Verbindungslinie von Kamera zu Displays -->
  <path d="M 630 480 Q 650 470 660 470" stroke="#555" stroke-width="1" fill="none"/>
  
  <!-- Temperaturfarbskala (Legende) -->
  <g id="temp-scale">
    <defs>
      <linearGradient id="temp-gradient" x1="0%" y1="0%" x2="0%" y2="100%">
        <stop offset="0%" stop-color="#ff0000"/>
        <stop offset="20%" stop-color="#ff5500"/>
        <stop offset="40%" stop-color="#ffaa00"/>
        <stop offset="60%" stop-color="#ffff00"/>
        <stop offset="80%" stop-color="#00ffff"/>
        <stop offset="100%" stop-color="#0000ff"/>
      </linearGradient>
      
      <linearGradient id="hotspot-gradient" x1="50%" y1="50%" x2="100%" y2="100%">
        <stop offset="0%" stop-color="#ff0000"/>
        <stop offset="30%" stop-color="#ff5500"/>
        <stop offset="60%" stop-color="#ffaa00"/>
        <stop offset="100%" stop-color="#00ffff"/>
      </linearGradient>
      
      <linearGradient id="hotspot-gradient-small" x1="50%" y1="50%" x2="100%" y2="100%">
        <stop offset="0%" stop-color="#ff0000"/>
        <stop offset="30%" stop-color="#ff5500"/>
        <stop offset="60%" stop-color="#ffaa00"/>
        <stop offset="100%" stop-color="#00ffff"/>
      </linearGradient>
    </defs>
    
    <rect x="50" y="180" width="30" height="170" fill="url(#temp-gradient)"/>
    <rect x="50" y="180" width="30" height="170" fill="none" stroke="#333" stroke-width="1"/>
    
    <text x="45" y="185" font-family="Arial" font-size="10" fill="black" text-anchor="end">90°C</text>
    <text x="45" y="235" font-family="Arial" font-size="10" fill="black" text-anchor="end">75°C</text>
    <text x="45" y="285" font-family="Arial" font-size="10" fill="black" text-anchor="end">55°C</text>
    <text x="45" y="335" font-family="Arial" font-size="10" fill="black" text-anchor="end">35°C</text>
  </g>
  
  <!-- Defekt-Labels -->
  <g id="defect-labels">
    <!-- Hotspot Label -->
    <line x1="570" y1="220" x2="650" y2="150" stroke="#ff0000" stroke-width="1" stroke-dasharray="3,2"/>
    <rect x="650" y="130" width="100" height="40" fill="white" stroke="#ff0000" stroke-width="1" rx="5" ry="5"/>
    <text x="700" y="145" font-family="Arial" font-size="10" fill="#ff0000" text-anchor="middle">KRITISCHER DEFEKT</text>
    <text x="700" y="160" font-family="Arial" font-size="8" fill="#000" text-anchor="middle">Zellbruch mit Hotspot</text>
    
    <!-- Gelber Defekt Label -->
    <line x1="440" y1="315" x2="360" y2="380" stroke="#ffaa00" stroke-width="1" stroke-dasharray="3,2"/>
    <rect x="310" y="380" width="100" height="40" fill="white" stroke="#ffaa00" stroke-width="1" rx="5" ry="5"/>
    <text x="360" y="395" font-family="Arial" font-size="10" fill="#ffaa00" text-anchor="middle">LEICHTER DEFEKT</text>
    <text x="360" y="410" font-family="Arial" font-size="8" fill="#000" text-anchor="middle">Anschluss-Problem</text>
  </g>
  
  <!-- Titel und Beschreibung -->
  <text x="400" y="30" font-family="Arial" font-size="20" font-weight="bold" fill="black" text-anchor="middle">Thermografische Inspektion einer Photovoltaik-Anlage</text>
  <text x="400" y="60" font-family="Arial" font-size="14" fill="#444" text-anchor="middle">Erkennung von Defekten durch Temperaturunterschiede - f(x,y) als Funktion mehrerer Variablen</text>
  
  <!-- Erläuterung für Studenten -->
  <rect x="50" y="500" width="500" height="80" fill="white" stroke="#333" stroke-width="1" rx="5" ry="5"/>
  <text x="60" y="520" font-family="Arial" font-size="12" fill="black">Die Temperaturverteilung T = f(x,y) auf der Oberfläche der Solarmodule:</text>
  <text x="60" y="540" font-family="Arial" font-size="12" fill="black">• Normale Bereiche (blau): T ≈ 35-45°C bei Sonneneinstrahlung</text>
  <text x="60" y="560" font-family="Arial" font-size="12" fill="black">• Problembereiche (gelb): T ≈ 55-70°C zeigen leichte Defekte</text>
  <text x="60" y="580" font-family="Arial" font-size="12" fill="black">• Hotspots (rot): T > 80°C weisen auf kritische Defekte mit Brandgefahr hin</text>
</svg>