<?xml version="1.0" encoding="UTF-8" standalone="no"?>
<!DOCTYPE svg PUBLIC "-//W3C//DTD SVG 1.1//EN" "http://www.w3.org/Graphics/SVG/1.1/DTD/svg11.dtd">
<svg width="100%" height="100%" viewBox="0 0 119 118" version="1.1" xmlns="http://www.w3.org/2000/svg" xmlns:xlink="http://www.w3.org/1999/xlink" xml:space="preserve" xmlns:serif="http://www.serif.com/" style="fill-rule:evenodd;clip-rule:evenodd;stroke-miterlimit:10;">
    <g transform="matrix(0.6,0,0,0.6,5.8242,4.21643)">
        <path d="M0,93.096L0,88.844M45.484,93.096L45.484,88.844M136.453,93.096L136.453,88.844M181.937,93.096L181.937,88.844" style="fill:none;fill-rule:nonzero;stroke:rgb(128,128,128);stroke-width:0.2px;"/>
    </g>
    <g transform="matrix(0.6,0,0,0.6,5.8242,4.21642)">
        <path d="M88.843,181.94L93.095,181.94M88.843,161.725L93.095,161.725M88.843,141.509L93.095,141.509M88.843,121.294L93.095,121.294M88.843,101.078L93.095,101.078M88.843,80.862L93.095,80.862M88.843,60.647L93.095,60.647M88.843,40.431L93.095,40.431M88.843,20.216L93.095,20.216M88.843,0L93.095,0" style="fill:none;fill-rule:nonzero;stroke:rgb(128,128,128);stroke-width:0.2px;"/>
    </g>
    <g transform="matrix(0.6,0,0,0.6,5.8242,4.21642)">
        <path d="M0,90.97L179.945,90.97" style="fill:none;fill-rule:nonzero;stroke:black;stroke-width:0.4px;"/>
    </g>
    <g transform="matrix(0.6,0,0,0.6,113.791,58.7985)">
        <path d="M1.993,0L-1.196,-1.594L0,0L-1.196,1.594" style="fill-rule:nonzero;"/>
    </g>
    <g transform="matrix(0,-0.6,-0.6,0,114.39,113.977)">
        <path d="M0.995,89.974L180.943,89.974" style="fill:none;fill-rule:nonzero;stroke:black;stroke-width:0.4px;"/>
    </g>
    <g transform="matrix(0,-0.6,0.6,0,60.4054,5.41193)">
        <path d="M1.993,0L-1.196,-1.594L0,0L-1.196,1.594" style="fill-rule:nonzero;"/>
    </g>
    <text x="2.182px" y="66.369px" style="font-family:'LibertinusMath-Regular', 'Libertinus Math';font-size:6.545px;">−<tspan x="6.423px " y="66.369px ">2</tspan></text>
    <text x="29.472px" y="66.356px" style="font-family:'LibertinusMath-Regular', 'Libertinus Math';font-size:6.545px;">−<tspan x="33.713px " y="66.356px ">1</tspan></text>
    <text x="86.173px" y="66.356px" style="font-family:'LibertinusMath-Regular', 'Libertinus Math';font-size:6.545px;">1</text>
    <text x="113.463px" y="66.369px" style="font-family:'LibertinusMath-Regular', 'Libertinus Math';font-size:6.545px;">2</text>
    <text x="49.543px" y="115.338px" style="font-family:'LibertinusMath-Regular', 'Libertinus Math';font-size:6.545px;">−<tspan x="53.784px " y="115.338px ">9</tspan></text>
    <text x="49.543px" y="103.218px" style="font-family:'LibertinusMath-Regular', 'Libertinus Math';font-size:6.545px;">−<tspan x="53.784px " y="103.218px ">7</tspan></text>
    <text x="49.543px" y="91.086px" style="font-family:'LibertinusMath-Regular', 'Libertinus Math';font-size:6.545px;">−<tspan x="53.784px " y="91.086px ">5</tspan></text>
    <text x="49.543px" y="78.957px" style="font-family:'LibertinusMath-Regular', 'Libertinus Math';font-size:6.545px;">−<tspan x="53.784px " y="78.957px ">3</tspan></text>
    <text x="49.543px" y="66.847px" style="font-family:'LibertinusMath-Regular', 'Libertinus Math';font-size:6.545px;">−<tspan x="53.784px " y="66.847px ">1</tspan></text>
    <text x="53.785px" y="54.718px" style="font-family:'LibertinusMath-Regular', 'Libertinus Math';font-size:6.545px;">1</text>
    <text x="53.785px" y="42.569px" style="font-family:'LibertinusMath-Regular', 'Libertinus Math';font-size:6.545px;">3</text>
    <text x="53.785px" y="30.44px" style="font-family:'LibertinusMath-Regular', 'Libertinus Math';font-size:6.545px;">5</text>
    <text x="53.785px" y="18.314px" style="font-family:'LibertinusMath-Regular', 'Libertinus Math';font-size:6.545px;">7</text>
    <text x="53.785px" y="6.175px" style="font-family:'LibertinusMath-Regular', 'Libertinus Math';font-size:6.545px;">9</text>
    <g>
        <clipPath id="_clip1">
            <rect x="5.824" y="4.216" width="109.162" height="109.164" clip-rule="nonzero"/>
        </clipPath>
        <g clip-path="url(#_clip1)">
            <g transform="matrix(0.6,0,0,0.6,5.8242,4.21178)">
                <path d="M0,171.84C0,171.84 0.263,171.14 0.364,170.873C0.465,170.606 0.627,170.18 0.728,169.915C0.829,169.65 0.991,169.226 1.092,168.963C1.193,168.701 1.355,168.281 1.455,168.02C1.556,167.759 1.718,167.343 1.819,167.084C1.92,166.826 2.082,166.413 2.183,166.156C2.284,165.9 2.446,165.49 2.547,165.236C2.648,164.981 2.81,164.575 2.911,164.322C3.012,164.07 3.174,163.667 3.275,163.417C3.376,163.167 3.538,162.767 3.639,162.519C3.74,162.271 3.902,161.874 4.003,161.628C4.104,161.382 4.265,160.989 4.366,160.745C4.467,160.501 4.629,160.111 4.73,159.869C4.831,159.627 4.993,159.241 5.094,159.001C5.195,158.761 5.357,158.378 5.458,158.14C5.559,157.902 5.721,157.522 5.822,157.286C5.923,157.05 6.085,156.673 6.186,156.44C6.287,156.206 6.449,155.832 6.55,155.6C6.651,155.368 6.813,154.998 6.914,154.768C7.015,154.538 7.176,154.171 7.277,153.943C7.378,153.715 7.54,153.351 7.641,153.125C7.742,152.9 7.904,152.539 8.005,152.315C8.106,152.091 8.268,151.733 8.369,151.511C8.47,151.289 8.632,150.935 8.733,150.715C8.834,150.495 8.996,150.143 9.097,149.925C9.198,149.707 9.36,149.359 9.461,149.143C9.562,148.926 9.724,148.581 9.825,148.367C9.926,148.153 10.087,147.811 10.188,147.598C10.289,147.386 10.451,147.047 10.552,146.837C10.653,146.626 10.815,146.29 10.916,146.082C11.017,145.873 11.179,145.54 11.28,145.334C11.381,145.127 11.543,144.797 11.644,144.592C11.745,144.388 11.907,144.061 12.008,143.858C12.109,143.655 12.271,143.331 12.372,143.13C12.473,142.929 12.635,142.608 12.736,142.409C12.837,142.21 12.998,141.892 13.099,141.695C13.2,141.498 13.362,141.183 13.463,140.987C13.564,140.792 13.726,140.48 13.827,140.286C13.928,140.092 14.09,139.783 14.191,139.591C14.292,139.4 14.454,139.093 14.555,138.904C14.656,138.714 14.818,138.41 14.919,138.222C15.02,138.034 15.182,137.733 15.283,137.547C15.384,137.361 15.546,137.063 15.646,136.879C15.747,136.694 15.909,136.399 16.01,136.217C16.111,136.034 16.273,135.742 16.374,135.561C16.475,135.38 16.637,135.091 16.738,134.912C16.839,134.732 17.001,134.446 17.102,134.269C17.203,134.091 17.365,133.808 17.466,133.632C17.567,133.456 17.729,133.176 17.83,133.001C17.931,132.827 18.093,132.55 18.194,132.377C18.295,132.205 18.456,131.93 18.557,131.759C18.658,131.589 18.82,131.317 18.921,131.148C19.022,130.979 19.184,130.709 19.285,130.542C19.386,130.375 19.548,130.108 19.649,129.942C19.75,129.777 19.912,129.513 20.013,129.349C20.114,129.185 20.276,128.924 20.377,128.762C20.478,128.6 20.64,128.341 20.741,128.18C20.842,128.02 21.004,127.764 21.105,127.605C21.206,127.446 21.367,127.193 21.468,127.036C21.569,126.878 21.731,126.628 21.832,126.472C21.933,126.317 22.095,126.069 22.196,125.915C22.297,125.761 22.459,125.515 22.56,125.363C22.661,125.211 22.823,124.968 22.924,124.817C23.025,124.666 23.187,124.426 23.288,124.277C23.389,124.128 23.551,123.89 23.652,123.743C23.753,123.595 23.915,123.36 24.016,123.214C24.117,123.068 24.278,122.836 24.379,122.691C24.48,122.547 24.642,122.317 24.743,122.174C24.844,122.032 25.006,121.804 25.107,121.663C25.208,121.522 25.37,121.297 25.471,121.157C25.572,121.017 25.734,120.795 25.835,120.657C25.936,120.519 26.098,120.299 26.199,120.162C26.3,120.026 26.462,119.808 26.563,119.673C26.664,119.538 26.826,119.323 26.927,119.189C27.028,119.056 27.189,118.843 27.29,118.711C27.391,118.579 27.553,118.369 27.654,118.238C27.755,118.108 27.917,117.9 28.018,117.771C28.119,117.642 28.281,117.436 28.382,117.309C28.483,117.181 28.645,116.978 28.746,116.852C28.847,116.726 29.009,116.525 29.11,116.401C29.211,116.276 29.373,116.078 29.474,115.955C29.575,115.832 29.737,115.636 29.838,115.514C29.938,115.392 30.1,115.198 30.201,115.078C30.302,114.958 30.464,114.767 30.565,114.648C30.666,114.529 30.828,114.34 30.929,114.223C31.03,114.105 31.192,113.918 31.293,113.802C31.394,113.687 31.556,113.502 31.657,113.387C31.758,113.273 31.92,113.091 32.021,112.977C32.122,112.864 32.284,112.684 32.385,112.572C32.486,112.461 32.648,112.283 32.748,112.172C32.849,112.062 33.011,111.886 33.112,111.778C33.213,111.669 33.375,111.495 33.476,111.387C33.577,111.28 33.739,111.108 33.84,111.002C33.941,110.896 34.103,110.727 34.204,110.622C34.305,110.517 34.467,110.35 34.568,110.247C34.669,110.143 34.831,109.978 34.932,109.876C35.033,109.774 35.195,109.611 35.296,109.51C35.397,109.409 35.559,109.249 35.659,109.149C35.76,109.05 35.922,108.891 36.023,108.793C36.124,108.694 36.286,108.538 36.387,108.441C36.488,108.344 36.65,108.19 36.751,108.094C36.852,107.998 37.014,107.846 37.115,107.752C37.216,107.657 37.378,107.507 37.479,107.414C37.58,107.321 37.742,107.172 37.843,107.081C37.944,106.989 38.106,106.842 38.207,106.752C38.308,106.661 38.469,106.517 38.57,106.428C38.671,106.338 38.833,106.196 38.934,106.108C39.035,106.02 39.197,105.88 39.298,105.793C39.399,105.706 39.561,105.567 39.662,105.482C39.763,105.396 39.925,105.26 40.026,105.175C40.127,105.091 40.289,104.956 40.39,104.873C40.491,104.79 40.653,104.657 40.754,104.575C40.855,104.493 41.017,104.363 41.118,104.282C41.219,104.201 41.38,104.072 41.481,103.993C41.582,103.913 41.744,103.786 41.845,103.707C41.946,103.629 42.108,103.504 42.209,103.427C42.31,103.349 42.472,103.226 42.573,103.15C42.674,103.074 42.836,102.952 42.937,102.877C43.038,102.802 43.2,102.683 43.301,102.609C43.402,102.535 43.564,102.417 43.665,102.344C43.766,102.272 43.928,102.156 44.029,102.084C44.13,102.012 44.291,101.898 44.392,101.828C44.493,101.757 44.655,101.645 44.756,101.575C44.857,101.506 45.019,101.395 45.12,101.327C45.221,101.258 45.383,101.15 45.484,101.082C45.585,101.015 45.747,100.908 45.848,100.842C45.949,100.775 46.111,100.67 46.212,100.605C46.313,100.54 46.475,100.436 46.576,100.372C46.677,100.308 46.839,100.206 46.94,100.143C47.04,100.08 47.202,99.979 47.303,99.917C47.404,99.855 47.566,99.756 47.667,99.695C47.768,99.634 47.93,99.537 48.031,99.477C48.132,99.417 48.294,99.322 48.395,99.263C48.496,99.204 48.658,99.11 48.759,99.052C48.86,98.994 49.022,98.902 49.123,98.845C49.224,98.788 49.386,98.698 49.487,98.642C49.588,98.586 49.75,98.497 49.85,98.442C49.951,98.387 50.113,98.299 50.214,98.245C50.315,98.191 50.477,98.105 50.578,98.052C50.679,97.999 50.841,97.915 50.942,97.862C51.043,97.81 51.205,97.728 51.306,97.676C51.407,97.625 51.569,97.544 51.67,97.494C51.771,97.443 51.933,97.363 52.034,97.314C52.135,97.265 52.297,97.186 52.398,97.138C52.499,97.09 52.66,97.013 52.761,96.965C52.862,96.918 53.024,96.842 53.125,96.796C53.226,96.749 53.388,96.675 53.489,96.629C53.59,96.584 53.752,96.511 53.853,96.466C53.954,96.421 54.116,96.35 54.217,96.306C54.318,96.262 54.48,96.193 54.581,96.149C54.682,96.106 54.844,96.038 54.945,95.996C55.046,95.953 55.208,95.886 55.309,95.845C55.41,95.804 55.571,95.738 55.672,95.697C55.773,95.657 55.935,95.593 56.036,95.553C56.137,95.513 56.299,95.45 56.4,95.411C56.501,95.372 56.663,95.311 56.764,95.273C56.865,95.235 57.027,95.174 57.128,95.137C57.229,95.1 57.391,95.041 57.492,95.004C57.593,94.968 57.755,94.91 57.856,94.874C57.957,94.838 58.119,94.782 58.22,94.747C58.321,94.712 58.482,94.657 58.583,94.623C58.684,94.588 58.846,94.534 58.947,94.501C59.048,94.468 59.21,94.415 59.311,94.382C59.412,94.349 59.574,94.298 59.675,94.266C59.776,94.234 59.938,94.183 60.039,94.152C60.14,94.121 60.302,94.072 60.403,94.042C60.504,94.011 60.666,93.963 60.767,93.933C60.868,93.904 61.03,93.857 61.131,93.828C61.231,93.799 61.393,93.753 61.494,93.724C61.595,93.696 61.757,93.651 61.858,93.624C61.959,93.596 62.121,93.553 62.222,93.526C62.323,93.499 62.485,93.456 62.586,93.43C62.687,93.404 62.849,93.362 62.95,93.337C63.051,93.311 63.213,93.271 63.314,93.246C63.415,93.221 63.577,93.182 63.678,93.157C63.779,93.133 63.941,93.095 64.042,93.071C64.142,93.048 64.304,93.01 64.405,92.987C64.506,92.964 64.668,92.928 64.769,92.906C64.87,92.883 65.032,92.848 65.133,92.826C65.234,92.805 65.396,92.77 65.497,92.749C65.598,92.728 65.76,92.695 65.861,92.674C65.962,92.654 66.124,92.621 66.225,92.601C66.326,92.581 66.488,92.55 66.589,92.531C66.69,92.511 66.852,92.481 66.952,92.462C67.053,92.443 67.215,92.414 67.316,92.395C67.417,92.377 67.579,92.348 67.68,92.331C67.781,92.313 67.943,92.285 68.044,92.268C68.145,92.251 68.307,92.224 68.408,92.207C68.509,92.191 68.671,92.165 68.772,92.149C68.873,92.133 69.035,92.107 69.136,92.092C69.237,92.076 69.399,92.052 69.5,92.037C69.601,92.022 69.762,91.998 69.863,91.984C69.964,91.969 70.126,91.946 70.227,91.932C70.328,91.918 70.49,91.896 70.591,91.883C70.692,91.869 70.854,91.848 70.955,91.835C71.056,91.822 71.218,91.802 71.319,91.789C71.42,91.776 71.582,91.757 71.683,91.745C71.784,91.732 71.946,91.713 72.047,91.702C72.148,91.69 72.31,91.672 72.411,91.661C72.512,91.649 72.673,91.632 72.774,91.621C72.875,91.61 73.037,91.593 73.138,91.583C73.239,91.573 73.401,91.556 73.502,91.546C73.603,91.536 73.765,91.521 73.866,91.511C73.967,91.502 74.129,91.487 74.23,91.478C74.331,91.469 74.493,91.454 74.594,91.446C74.695,91.437 74.857,91.423 74.958,91.415C75.059,91.407 75.221,91.393 75.322,91.385C75.423,91.378 75.584,91.365 75.685,91.357C75.786,91.35 75.948,91.338 76.049,91.331C76.15,91.323 76.312,91.312 76.413,91.305C76.514,91.298 76.676,91.288 76.777,91.281C76.878,91.274 77.04,91.264 77.141,91.258C77.242,91.252 77.404,91.242 77.505,91.236C77.606,91.23 77.768,91.221 77.869,91.215C77.97,91.21 78.132,91.201 78.233,91.196C78.334,91.191 78.495,91.182 78.596,91.177C78.697,91.172 78.859,91.165 78.96,91.16C79.061,91.155 79.223,91.148 79.324,91.144C79.425,91.139 79.587,91.132 79.688,91.128C79.789,91.124 79.951,91.118 80.052,91.114C80.153,91.11 80.315,91.104 80.416,91.1C80.517,91.097 80.679,91.091 80.78,91.088C80.881,91.084 81.043,91.079 81.143,91.076C81.244,91.073 81.406,91.068 81.507,91.065C81.608,91.062 81.77,91.058 81.871,91.055C81.972,91.052 82.134,91.048 82.235,91.046C82.336,91.043 82.498,91.039 82.599,91.037C82.7,91.035 82.862,91.031 82.963,91.029C83.064,91.027 83.226,91.024 83.327,91.022C83.428,91.02 83.59,91.017 83.691,91.015C83.792,91.014 83.953,91.011 84.054,91.01C84.155,91.008 84.317,91.006 84.418,91.004C84.519,91.003 84.681,91.001 84.782,90.999C84.883,90.998 85.045,90.996 85.146,90.995C85.247,90.994 85.409,90.992 85.51,90.991C85.611,90.991 85.773,90.989 85.874,90.988C85.975,90.987 86.137,90.986 86.238,90.985C86.339,90.985 86.501,90.984 86.602,90.983C86.703,90.982 86.864,90.981 86.965,90.981C87.066,90.98 87.228,90.98 87.329,90.979C87.43,90.979 87.592,90.978 87.693,90.978C87.794,90.977 87.956,90.977 88.057,90.977C88.158,90.976 88.32,90.976 88.421,90.976C88.522,90.976 88.684,90.975 88.785,90.975C88.886,90.975 89.048,90.975 89.149,90.975C89.25,90.975 89.412,90.974 89.513,90.974C89.614,90.974 89.775,90.974 89.876,90.974C89.977,90.974 90.139,90.974 90.24,90.974C90.341,90.974 90.503,90.974 90.604,90.974L90.968,90.974C91.069,90.974 91.231,90.974 91.332,90.974C91.433,90.974 91.595,90.974 91.696,90.974C91.797,90.974 91.959,90.974 92.06,90.974C92.161,90.974 92.323,90.974 92.424,90.974C92.524,90.974 92.686,90.973 92.787,90.973C92.888,90.973 93.05,90.973 93.151,90.973C93.252,90.973 93.414,90.972 93.515,90.972C93.616,90.972 93.778,90.972 93.879,90.971C93.98,90.971 94.142,90.971 94.243,90.97C94.344,90.97 94.506,90.969 94.607,90.969C94.708,90.968 94.87,90.968 94.971,90.967C95.072,90.967 95.234,90.966 95.335,90.965C95.435,90.964 95.597,90.963 95.698,90.963C95.799,90.962 95.961,90.961 96.062,90.96C96.163,90.959 96.325,90.958 96.426,90.957C96.527,90.956 96.689,90.954 96.79,90.953C96.891,90.952 97.053,90.95 97.154,90.949C97.255,90.947 97.417,90.945 97.518,90.944C97.619,90.942 97.781,90.94 97.882,90.939C97.983,90.937 98.145,90.934 98.245,90.933C98.346,90.931 98.508,90.928 98.609,90.926C98.71,90.924 98.872,90.921 98.973,90.919C99.074,90.917 99.236,90.913 99.337,90.911C99.438,90.909 99.6,90.905 99.701,90.902C99.802,90.9 99.964,90.896 100.065,90.893C100.166,90.89 100.328,90.886 100.429,90.883C100.53,90.88 100.692,90.875 100.793,90.872C100.894,90.869 101.056,90.864 101.156,90.86C101.257,90.857 101.419,90.851 101.52,90.848C101.621,90.844 101.783,90.838 101.884,90.834C101.985,90.83 102.147,90.824 102.248,90.82C102.349,90.816 102.511,90.809 102.612,90.804C102.713,90.8 102.875,90.793 102.976,90.788C103.077,90.783 103.239,90.776 103.34,90.771C103.441,90.766 103.603,90.757 103.704,90.752C103.805,90.747 103.966,90.738 104.067,90.733C104.168,90.727 104.33,90.718 104.431,90.712C104.532,90.706 104.694,90.696 104.795,90.69C104.896,90.684 105.058,90.674 105.159,90.667C105.26,90.66 105.422,90.65 105.523,90.643C105.624,90.636 105.786,90.625 105.887,90.617C105.988,90.61 106.15,90.598 106.251,90.591C106.352,90.583 106.514,90.571 106.615,90.563C106.716,90.555 106.877,90.541 106.978,90.533C107.079,90.525 107.241,90.511 107.342,90.502C107.443,90.494 107.605,90.479 107.706,90.47C107.807,90.461 107.969,90.446 108.07,90.437C108.171,90.427 108.333,90.412 108.434,90.402C108.535,90.392 108.697,90.375 108.798,90.365C108.899,90.355 109.061,90.338 109.162,90.327C109.263,90.316 109.425,90.299 109.526,90.287C109.626,90.276 109.788,90.258 109.889,90.246C109.99,90.235 110.152,90.216 110.253,90.204C110.354,90.191 110.516,90.172 110.617,90.159C110.718,90.147 110.88,90.126 110.981,90.113C111.082,90.1 111.244,90.079 111.345,90.065C111.446,90.052 111.608,90.03 111.709,90.016C111.81,90.002 111.972,89.979 112.073,89.964C112.174,89.95 112.336,89.926 112.437,89.911C112.537,89.896 112.699,89.872 112.8,89.856C112.901,89.841 113.063,89.815 113.164,89.799C113.265,89.783 113.427,89.757 113.528,89.741C113.629,89.724 113.791,89.697 113.892,89.68C113.993,89.663 114.155,89.635 114.256,89.617C114.357,89.6 114.519,89.571 114.62,89.553C114.721,89.535 114.883,89.505 114.984,89.486C115.085,89.467 115.247,89.437 115.347,89.417C115.448,89.398 115.61,89.367 115.711,89.347C115.812,89.327 115.974,89.294 116.075,89.274C116.176,89.253 116.338,89.22 116.439,89.199C116.54,89.178 116.702,89.143 116.803,89.122C116.904,89.1 117.066,89.065 117.167,89.042C117.268,89.02 117.43,88.984 117.531,88.961C117.632,88.938 117.794,88.9 117.895,88.877C117.996,88.853 118.157,88.815 118.258,88.791C118.359,88.766 118.521,88.727 118.622,88.702C118.723,88.677 118.885,88.637 118.986,88.611C119.087,88.586 119.249,88.544 119.35,88.518C119.451,88.492 119.613,88.449 119.714,88.422C119.815,88.395 119.977,88.352 120.078,88.324C120.179,88.297 120.341,88.252 120.442,88.224C120.543,88.195 120.705,88.149 120.806,88.12C120.907,88.091 121.068,88.044 121.169,88.015C121.27,87.985 121.432,87.937 121.533,87.907C121.634,87.876 121.796,87.827 121.897,87.796C121.998,87.765 122.16,87.714 122.261,87.682C122.362,87.65 122.524,87.599 122.625,87.566C122.726,87.533 122.888,87.48 122.989,87.447C123.09,87.414 123.252,87.36 123.353,87.326C123.454,87.291 123.616,87.236 123.717,87.201C123.818,87.166 123.979,87.11 124.08,87.074C124.181,87.038 124.343,86.98 124.444,86.944C124.545,86.908 124.707,86.848 124.808,86.811C124.909,86.774 125.071,86.713 125.172,86.675C125.273,86.637 125.435,86.576 125.536,86.537C125.637,86.498 125.799,86.435 125.9,86.395C126.001,86.355 126.163,86.291 126.264,86.251C126.365,86.21 126.527,86.144 126.628,86.103C126.728,86.062 126.89,85.995 126.991,85.952C127.092,85.91 127.254,85.842 127.355,85.799C127.456,85.756 127.618,85.686 127.719,85.642C127.82,85.598 127.982,85.527 128.083,85.482C128.184,85.437 128.346,85.364 128.447,85.319C128.548,85.273 128.71,85.199 128.811,85.152C128.912,85.106 129.074,85.03 129.175,84.983C129.276,84.935 129.438,84.858 129.539,84.81C129.639,84.762 129.801,84.683 129.902,84.634C130.003,84.585 130.165,84.505 130.266,84.454C130.367,84.404 130.529,84.323 130.63,84.272C130.731,84.221 130.893,84.138 130.994,84.086C131.095,84.033 131.257,83.949 131.358,83.896C131.459,83.843 131.621,83.757 131.722,83.703C131.823,83.649 131.985,83.561 132.086,83.506C132.187,83.451 132.349,83.362 132.449,83.306C132.55,83.25 132.712,83.16 132.813,83.103C132.914,83.046 133.076,82.954 133.177,82.896C133.278,82.838 133.44,82.744 133.541,82.685C133.642,82.626 133.804,82.531 133.905,82.471C134.006,82.411 134.168,82.314 134.269,82.253C134.37,82.192 134.532,82.093 134.633,82.031C134.734,81.969 134.896,81.869 134.997,81.805C135.098,81.742 135.259,81.64 135.36,81.576C135.461,81.512 135.623,81.408 135.724,81.343C135.825,81.278 135.987,81.173 136.088,81.106C136.189,81.04 136.351,80.933 136.452,80.866C136.553,80.798 136.715,80.69 136.816,80.621C136.917,80.553 137.079,80.442 137.18,80.373C137.281,80.303 137.443,80.191 137.544,80.12C137.645,80.05 137.807,79.936 137.908,79.864C138.009,79.792 138.17,79.676 138.271,79.604C138.372,79.531 138.534,79.413 138.635,79.339C138.736,79.265 138.898,79.146 138.999,79.071C139.1,78.996 139.262,78.874 139.363,78.798C139.464,78.722 139.626,78.599 139.727,78.521C139.828,78.444 139.99,78.319 140.091,78.241C140.192,78.162 140.354,78.035 140.455,77.956C140.556,77.876 140.718,77.747 140.819,77.666C140.92,77.585 141.081,77.455 141.182,77.373C141.283,77.291 141.445,77.158 141.546,77.075C141.647,76.992 141.809,76.857 141.91,76.773C142.011,76.688 142.173,76.552 142.274,76.466C142.375,76.381 142.537,76.242 142.638,76.155C142.739,76.068 142.901,75.928 143.002,75.84C143.103,75.752 143.265,75.61 143.366,75.52C143.467,75.431 143.629,75.287 143.729,75.196C143.83,75.106 143.992,74.959 144.093,74.867C144.194,74.776 144.356,74.627 144.457,74.534C144.558,74.441 144.72,74.291 144.821,74.196C144.922,74.102 145.084,73.95 145.185,73.854C145.286,73.758 145.448,73.604 145.549,73.507C145.65,73.41 145.812,73.254 145.913,73.155C146.014,73.057 146.176,72.899 146.277,72.799C146.378,72.699 146.539,72.539 146.64,72.438C146.741,72.337 146.903,72.174 147.004,72.072C147.105,71.97 147.267,71.805 147.368,71.701C147.469,71.598 147.631,71.431 147.732,71.326C147.833,71.221 147.995,71.052 148.096,70.946C148.197,70.84 148.359,70.668 148.46,70.561C148.561,70.453 148.723,70.279 148.824,70.171C148.925,70.062 149.087,69.886 149.188,69.776C149.289,69.665 149.45,69.487 149.551,69.376C149.652,69.264 149.814,69.084 149.915,68.971C150.016,68.858 150.178,68.675 150.279,68.561C150.38,68.446 150.542,68.261 150.643,68.146C150.744,68.03 150.906,67.843 151.007,67.725C151.108,67.608 151.27,67.419 151.371,67.3C151.472,67.181 151.634,66.99 151.735,66.87C151.836,66.75 151.998,66.556 152.099,66.434C152.2,66.313 152.361,66.116 152.462,65.993C152.563,65.87 152.725,65.672 152.826,65.547C152.927,65.423 153.089,65.222 153.19,65.096C153.291,64.97 153.453,64.767 153.554,64.639C153.655,64.512 153.817,64.306 153.918,64.177C154.019,64.048 154.181,63.84 154.282,63.71C154.383,63.579 154.545,63.369 154.646,63.237C154.747,63.105 154.909,62.892 155.01,62.759C155.111,62.625 155.272,62.41 155.373,62.275C155.474,62.14 155.636,61.922 155.737,61.786C155.838,61.649 156,61.429 156.101,61.291C156.202,61.153 156.364,60.931 156.465,60.791C156.566,60.651 156.728,60.426 156.829,60.285C156.93,60.144 157.092,59.916 157.193,59.774C157.294,59.631 157.456,59.401 157.557,59.257C157.658,59.112 157.82,58.88 157.921,58.734C158.021,58.588 158.183,58.353 158.284,58.205C158.385,58.058 158.547,57.82 158.648,57.671C158.749,57.522 158.911,57.282 159.012,57.131C159.113,56.98 159.275,56.737 159.376,56.585C159.477,56.433 159.639,56.187 159.74,56.033C159.841,55.88 160.003,55.631 160.104,55.476C160.205,55.32 160.367,55.07 160.468,54.912C160.569,54.755 160.731,54.502 160.832,54.343C160.932,54.184 161.094,53.928 161.195,53.768C161.296,53.607 161.458,53.349 161.559,53.186C161.66,53.024 161.822,52.763 161.923,52.599C162.024,52.435 162.186,52.171 162.287,52.006C162.388,51.84 162.55,51.573 162.651,51.406C162.752,51.239 162.914,50.969 163.015,50.8C163.116,50.632 163.278,50.359 163.379,50.189C163.48,50.018 163.642,49.743 163.742,49.571C163.843,49.398 164.005,49.121 164.106,48.947C164.207,48.773 164.369,48.492 164.47,48.316C164.571,48.14 164.733,47.857 164.834,47.679C164.935,47.502 165.097,47.216 165.198,47.037C165.299,46.857 165.461,46.568 165.562,46.387C165.663,46.206 165.825,45.914 165.926,45.732C166.027,45.549 166.189,45.254 166.29,45.069C166.391,44.885 166.552,44.587 166.653,44.401C166.754,44.215 166.916,43.914 167.017,43.726C167.118,43.538 167.28,43.235 167.381,43.045C167.482,42.855 167.644,42.548 167.745,42.357C167.846,42.165 168.008,41.856 168.109,41.662C168.21,41.468 168.372,41.156 168.473,40.961C168.574,40.765 168.736,40.451 168.837,40.253C168.938,40.056 169.1,39.738 169.201,39.539C169.302,39.34 169.463,39.019 169.564,38.818C169.665,38.617 169.827,38.293 169.928,38.09C170.029,37.887 170.191,37.56 170.292,37.356C170.393,37.151 170.555,36.821 170.656,36.614C170.757,36.408 170.919,36.075 171.02,35.866C171.121,35.658 171.283,35.322 171.384,35.111C171.485,34.901 171.647,34.562 171.748,34.35C171.849,34.137 172.011,33.795 172.112,33.581C172.213,33.367 172.374,33.022 172.475,32.805C172.576,32.589 172.738,32.241 172.839,32.023C172.94,31.805 173.102,31.453 173.203,31.233C173.304,31.013 173.466,30.659 173.567,30.437C173.668,30.215 173.83,29.857 173.931,29.633C174.032,29.409 174.194,29.048 174.295,28.823C174.396,28.597 174.558,28.233 174.659,28.005C174.76,27.777 174.922,27.41 175.023,27.18C175.123,26.95 175.285,26.58 175.386,26.348C175.487,26.116 175.649,25.742 175.75,25.508C175.851,25.275 176.013,24.898 176.114,24.662C176.215,24.426 176.377,24.046 176.478,23.808C176.579,23.57 176.741,23.187 176.842,22.947C176.943,22.707 177.105,22.321 177.206,22.079C177.307,21.837 177.469,21.447 177.57,21.203C177.671,20.959 177.833,20.566 177.933,20.32C178.034,20.074 178.196,19.677 178.297,19.429C178.398,19.181 178.56,18.781 178.661,18.531C178.762,18.281 178.924,17.878 179.025,17.626C179.126,17.373 179.288,16.967 179.389,16.713C179.49,16.458 179.652,16.048 179.753,15.792C179.854,15.535 180.016,15.122 180.117,14.864C180.218,14.605 180.38,14.189 180.481,13.928C180.582,13.667 180.743,13.247 180.844,12.985C180.945,12.722 181.107,12.298 181.208,12.034C181.309,11.769 181.471,11.342 181.572,11.075C181.673,10.808 181.936,10.108 181.936,10.108" style="fill:none;fill-rule:nonzero;stroke:rgb(0,90,148);stroke-width:0.8px;"/>
            </g>
            <text x="109.673px" y="56.433px" style="font-family:'LibertinusMath-Regular', 'Libertinus Math';font-size:6.545px;">𝑥</text>
            <g>
                <text x="62.706px" y="12.168px" style="font-family:'LibertinusMath-Regular', 'Libertinus Math';font-size:6.545px;">𝑦</text>
                <text x="68.054px" y="12.168px" style="font-family:'LibertinusMath-Regular', 'Libertinus Math';font-size:6.545px;">=</text>
                <text x="74.115px" y="12.168px" style="font-family:'LibertinusMath-Regular', 'Libertinus Math';font-size:6.545px;">𝑥</text>
                <text x="77.659px" y="9.713px" style="font-family:'LibertinusMath-Regular', 'Libertinus Math';font-size:5.236px;">3</text>
            </g>
        </g>
    </g>
    <g transform="matrix(1,0,0,1,-0.094622,0)">
        <circle cx="60.5" cy="58.5" r="2.5" style="fill:none;stroke:rgb(192,0,0);stroke-width:1px;stroke-linecap:round;stroke-linejoin:round;stroke-miterlimit:1.5;"/>
    </g>
    <g transform="matrix(1,0,0,1,-1,-3)">
        <g transform="matrix(1,-0,-0,1,1,3)">
            <path d="M64.6,65.3L64,62L67,63.5L64.6,65.3Z" style="fill:rgb(192,0,0);"/>
            <path d="M79,82C79,82 69.196,68.928 65.44,63.92" style="fill:none;stroke:rgb(192,0,0);stroke-width:1px;stroke-linecap:round;stroke-linejoin:round;stroke-miterlimit:1.5;"/>
        </g>
    </g>
    <g transform="matrix(1,0,0,1,-14,-13)">
        <g transform="matrix(8,0,0,8,94.896,102.584)">
            <path d="M0.387,-0.385L0.387,-0.248C0.387,-0.188 0.384,-0.116 0.384,-0.086C0.384,-0.021 0.426,0.01 0.472,0.01C0.514,0.01 0.546,-0 0.588,-0.027L0.576,-0.052C0.545,-0.041 0.522,-0.04 0.497,-0.044C0.473,-0.048 0.464,-0.072 0.464,-0.126C0.464,-0.156 0.467,-0.199 0.467,-0.259L0.467,-0.385L0.505,-0.385C0.529,-0.385 0.564,-0.384 0.577,-0.383C0.58,-0.399 0.583,-0.409 0.589,-0.424L0.584,-0.431C0.57,-0.43 0.537,-0.429 0.514,-0.429L0.467,-0.429C0.467,-0.504 0.467,-0.517 0.472,-0.575C0.472,-0.582 0.469,-0.585 0.463,-0.585C0.438,-0.575 0.425,-0.564 0.393,-0.56L0.391,-0.557C0.391,-0.518 0.387,-0.487 0.387,-0.429L0.175,-0.429C0.175,-0.504 0.175,-0.517 0.18,-0.575C0.18,-0.582 0.177,-0.585 0.171,-0.585C0.146,-0.575 0.133,-0.564 0.101,-0.56L0.099,-0.557C0.099,-0.518 0.095,-0.487 0.095,-0.429C0.074,-0.429 0.053,-0.429 0.041,-0.431C0.034,-0.415 0.029,-0.405 0.019,-0.39L0.024,-0.383C0.041,-0.384 0.072,-0.385 0.095,-0.385L0.095,-0.231C0.095,-0.171 0.092,-0.099 0.092,-0.069C0.092,-0.022 0.124,0.01 0.17,0.01C0.212,0.01 0.247,-0.004 0.286,-0.04L0.274,-0.068C0.247,-0.052 0.231,-0.05 0.205,-0.05C0.178,-0.05 0.172,-0.071 0.172,-0.112C0.172,-0.142 0.175,-0.182 0.175,-0.242L0.175,-0.385L0.387,-0.385Z" style="fill:rgb(192,0,0);fill-rule:nonzero;"/>
        </g>
        <text x="87px" y="102.584px" style="font-family:'LibertinusSans-Regular', 'Libertinus Sans';font-size:8px;fill:rgb(192,0,0);">Sa<tspan x="99.712px " y="102.584px ">e</tspan>lpunkt</text>
    </g>
</svg>
